<svg width="141" height="22" viewBox="0 0 141 22" fill="none" xmlns="http://www.w3.org/2000/svg">
<path d="M33.9043 5.82666V15.7798H32.6055V5.82666H33.9043ZM37.1035 5.82666V6.90674H29.4131V5.82666H37.1035ZM37.3701 12.1636V12.0063C37.3701 11.4731 37.4476 10.9787 37.6025 10.5229C37.7575 10.0627 37.9808 9.6639 38.2725 9.32666C38.5641 8.98486 38.9173 8.72054 39.332 8.53369C39.7467 8.34229 40.2116 8.24658 40.7266 8.24658C41.2461 8.24658 41.7132 8.34229 42.1279 8.53369C42.5472 8.72054 42.9027 8.98486 43.1943 9.32666C43.4906 9.6639 43.7161 10.0627 43.8711 10.5229C44.026 10.9787 44.1035 11.4731 44.1035 12.0063V12.1636C44.1035 12.6968 44.026 13.1912 43.8711 13.647C43.7161 14.1027 43.4906 14.5015 43.1943 14.8433C42.9027 15.1805 42.5495 15.4448 42.1348 15.6362C41.7246 15.8231 41.2598 15.9165 40.7402 15.9165C40.2207 15.9165 39.7536 15.8231 39.3389 15.6362C38.9242 15.4448 38.5687 15.1805 38.2725 14.8433C37.9808 14.5015 37.7575 14.1027 37.6025 13.647C37.4476 13.1912 37.3701 12.6968 37.3701 12.1636ZM38.6348 12.0063V12.1636C38.6348 12.5327 38.6781 12.8813 38.7646 13.2095C38.8512 13.533 38.9811 13.8201 39.1543 14.0708C39.332 14.3215 39.5531 14.5197 39.8174 14.6655C40.0817 14.8068 40.3893 14.8774 40.7402 14.8774C41.0866 14.8774 41.3896 14.8068 41.6494 14.6655C41.9137 14.5197 42.1325 14.3215 42.3057 14.0708C42.4788 13.8201 42.6087 13.533 42.6953 13.2095C42.7865 12.8813 42.832 12.5327 42.832 12.1636V12.0063C42.832 11.6418 42.7865 11.2977 42.6953 10.9741C42.6087 10.646 42.4766 10.3566 42.2988 10.106C42.1257 9.85075 41.9069 9.65023 41.6426 9.50439C41.3828 9.35856 41.0775 9.28564 40.7266 9.28564C40.3802 9.28564 40.0749 9.35856 39.8105 9.50439C39.5508 9.65023 39.332 9.85075 39.1543 10.106C38.9811 10.3566 38.8512 10.646 38.7646 10.9741C38.6781 11.2977 38.6348 11.6418 38.6348 12.0063ZM51.0352 14.4673L52.9355 8.3833H53.7695L53.6055 9.59326L51.6709 15.7798H50.8574L51.0352 14.4673ZM49.7568 8.3833L51.377 14.5356L51.4932 15.7798H50.6387L48.4922 8.3833H49.7568ZM55.5879 14.4878L57.1328 8.3833H58.3906L56.2441 15.7798H55.3965L55.5879 14.4878ZM53.9541 8.3833L55.8135 14.3647L56.0254 15.7798H55.2188L53.2295 9.57959L53.0654 8.3833H53.9541ZM60.9541 9.54541V15.7798H59.6895V8.3833H60.9199L60.9541 9.54541ZM63.2646 8.34229L63.2578 9.51807C63.153 9.49528 63.0527 9.48161 62.957 9.47705C62.8659 9.46794 62.7611 9.46338 62.6426 9.46338C62.3509 9.46338 62.0934 9.50895 61.8701 9.6001C61.6468 9.69124 61.4577 9.81885 61.3027 9.98291C61.1478 10.147 61.0247 10.3429 60.9336 10.5708C60.847 10.7941 60.79 11.0402 60.7627 11.3091L60.4072 11.5142C60.4072 11.0675 60.4505 10.6483 60.5371 10.2563C60.6283 9.86442 60.7673 9.51807 60.9541 9.21729C61.141 8.91195 61.3779 8.67497 61.665 8.50635C61.9567 8.33317 62.3031 8.24658 62.7041 8.24658C62.7952 8.24658 62.9001 8.25798 63.0186 8.28076C63.137 8.29899 63.2191 8.3195 63.2646 8.34229ZM65.8076 8.3833V15.7798H64.5361V8.3833H65.8076ZM64.4404 6.42139C64.4404 6.21631 64.502 6.04313 64.625 5.90186C64.7526 5.76058 64.9395 5.68994 65.1855 5.68994C65.4271 5.68994 65.6117 5.76058 65.7393 5.90186C65.8714 6.04313 65.9375 6.21631 65.9375 6.42139C65.9375 6.61735 65.8714 6.78597 65.7393 6.92725C65.6117 7.06396 65.4271 7.13232 65.1855 7.13232C64.9395 7.13232 64.7526 7.06396 64.625 6.92725C64.502 6.78597 64.4404 6.61735 64.4404 6.42139ZM70.9346 8.3833V9.354H66.9355V8.3833H70.9346ZM68.2891 6.58545H69.5537V13.9478C69.5537 14.1984 69.5924 14.3875 69.6699 14.5151C69.7474 14.6427 69.8477 14.7271 69.9707 14.7681C70.0938 14.8091 70.2259 14.8296 70.3672 14.8296C70.472 14.8296 70.5814 14.8205 70.6953 14.8022C70.8138 14.7795 70.9027 14.7612 70.9619 14.7476L70.9688 15.7798C70.8685 15.8117 70.7363 15.8413 70.5723 15.8687C70.4128 15.9006 70.2191 15.9165 69.9912 15.9165C69.6813 15.9165 69.3965 15.855 69.1367 15.7319C68.877 15.6089 68.6696 15.4038 68.5146 15.1167C68.3643 14.825 68.2891 14.4331 68.2891 13.9409V6.58545ZM75.4873 15.9165C74.9723 15.9165 74.5052 15.8299 74.0859 15.6567C73.6712 15.479 73.3135 15.2306 73.0127 14.9116C72.7165 14.5926 72.4886 14.2144 72.3291 13.7769C72.1696 13.3394 72.0898 12.8608 72.0898 12.3413V12.0542C72.0898 11.4526 72.1787 10.9172 72.3564 10.4478C72.5342 9.9738 72.7757 9.57275 73.0811 9.24463C73.3864 8.9165 73.7327 8.66813 74.1201 8.49951C74.5075 8.33089 74.9085 8.24658 75.3232 8.24658C75.8519 8.24658 76.3076 8.33773 76.6904 8.52002C77.0778 8.70231 77.3945 8.95752 77.6406 9.28564C77.8867 9.60921 78.069 9.99202 78.1875 10.4341C78.306 10.8716 78.3652 11.3501 78.3652 11.8696V12.437H72.8418V11.4048H77.1006V11.3091C77.0824 10.981 77.014 10.6619 76.8955 10.3521C76.7816 10.0422 76.5993 9.78695 76.3486 9.58643C76.098 9.3859 75.7562 9.28564 75.3232 9.28564C75.0361 9.28564 74.7718 9.34717 74.5303 9.47021C74.2887 9.5887 74.0814 9.76644 73.9082 10.0034C73.735 10.2404 73.6006 10.5298 73.5049 10.8716C73.4092 11.2134 73.3613 11.6076 73.3613 12.0542V12.3413C73.3613 12.6922 73.4092 13.0226 73.5049 13.3325C73.6051 13.6379 73.7487 13.9067 73.9355 14.1392C74.127 14.3716 74.3571 14.5539 74.626 14.686C74.8994 14.8182 75.2093 14.8843 75.5557 14.8843C76.0023 14.8843 76.3805 14.7931 76.6904 14.6108C77.0003 14.4285 77.2715 14.1847 77.5039 13.8794L78.2695 14.4878C78.11 14.7293 77.9072 14.9595 77.6611 15.1782C77.415 15.397 77.112 15.5747 76.752 15.7114C76.3965 15.8481 75.9749 15.9165 75.4873 15.9165ZM87.6758 14.5151V10.7075C87.6758 10.4159 87.6165 10.1629 87.498 9.94873C87.3841 9.72998 87.2109 9.56136 86.9785 9.44287C86.7461 9.32438 86.459 9.26514 86.1172 9.26514C85.7982 9.26514 85.5179 9.31982 85.2764 9.4292C85.0394 9.53857 84.8525 9.68213 84.7158 9.85986C84.5837 10.0376 84.5176 10.229 84.5176 10.4341H83.2529C83.2529 10.1698 83.3213 9.90771 83.458 9.64795C83.5947 9.38818 83.7907 9.15348 84.0459 8.94385C84.3057 8.72965 84.6156 8.56104 84.9756 8.43799C85.3402 8.31038 85.7458 8.24658 86.1924 8.24658C86.7301 8.24658 87.2041 8.33773 87.6143 8.52002C88.029 8.70231 88.3525 8.97803 88.585 9.34717C88.8219 9.71175 88.9404 10.1698 88.9404 10.7212V14.1665C88.9404 14.4126 88.9609 14.6746 89.002 14.9526C89.0475 15.2306 89.1136 15.4699 89.2002 15.6704V15.7798H87.8809C87.8171 15.634 87.7669 15.4403 87.7305 15.1987C87.694 14.9526 87.6758 14.7248 87.6758 14.5151ZM87.8945 11.2954L87.9082 12.1841H86.6299C86.2699 12.1841 85.9486 12.2137 85.666 12.2729C85.3835 12.3276 85.1465 12.4119 84.9551 12.5259C84.7637 12.6398 84.6178 12.7834 84.5176 12.9565C84.4173 13.1252 84.3672 13.3234 84.3672 13.5513C84.3672 13.7837 84.4196 13.9956 84.5244 14.187C84.6292 14.3784 84.7865 14.5311 84.9961 14.645C85.2103 14.7544 85.4723 14.8091 85.7822 14.8091C86.1696 14.8091 86.5114 14.7271 86.8076 14.563C87.1038 14.3989 87.3385 14.1984 87.5117 13.9614C87.6895 13.7244 87.7852 13.4943 87.7988 13.271L88.3389 13.8794C88.307 14.0708 88.2204 14.2827 88.0791 14.5151C87.9378 14.7476 87.7487 14.9709 87.5117 15.1851C87.2793 15.3947 87.0013 15.5701 86.6777 15.7114C86.3587 15.8481 85.9987 15.9165 85.5977 15.9165C85.0964 15.9165 84.6566 15.8185 84.2783 15.6226C83.9046 15.4266 83.613 15.1646 83.4033 14.8364C83.1982 14.5037 83.0957 14.1323 83.0957 13.7222C83.0957 13.3257 83.1732 12.9771 83.3281 12.6763C83.4831 12.3709 83.7064 12.118 83.998 11.9175C84.2897 11.7124 84.6406 11.5575 85.0508 11.4526C85.4609 11.3478 85.9189 11.2954 86.4248 11.2954H87.8945ZM92.1943 9.9624V15.7798H90.9297V8.3833H92.126L92.1943 9.9624ZM91.8936 11.8013L91.3672 11.7808C91.3717 11.2749 91.4469 10.8078 91.5928 10.3794C91.7386 9.94645 91.9437 9.57048 92.208 9.25146C92.4723 8.93245 92.7868 8.68636 93.1514 8.51318C93.5205 8.33545 93.9284 8.24658 94.375 8.24658C94.7396 8.24658 95.0677 8.29671 95.3594 8.39697C95.651 8.49268 95.8994 8.64762 96.1045 8.86182C96.3141 9.07601 96.4736 9.354 96.583 9.6958C96.6924 10.033 96.7471 10.4455 96.7471 10.9331V15.7798H95.4756V10.9194C95.4756 10.5321 95.4186 10.2222 95.3047 9.98975C95.1908 9.75277 95.0244 9.58187 94.8057 9.47705C94.5869 9.36768 94.318 9.31299 93.999 9.31299C93.6846 9.31299 93.3975 9.37907 93.1377 9.51123C92.8825 9.64339 92.6615 9.82568 92.4746 10.0581C92.2923 10.2905 92.1488 10.5571 92.0439 10.8579C91.9437 11.1541 91.8936 11.4686 91.8936 11.8013ZM106.502 14.5151V10.7075C106.502 10.4159 106.443 10.1629 106.324 9.94873C106.21 9.72998 106.037 9.56136 105.805 9.44287C105.572 9.32438 105.285 9.26514 104.943 9.26514C104.624 9.26514 104.344 9.31982 104.103 9.4292C103.866 9.53857 103.679 9.68213 103.542 9.85986C103.41 10.0376 103.344 10.229 103.344 10.4341H102.079C102.079 10.1698 102.147 9.90771 102.284 9.64795C102.421 9.38818 102.617 9.15348 102.872 8.94385C103.132 8.72965 103.442 8.56104 103.802 8.43799C104.166 8.31038 104.572 8.24658 105.019 8.24658C105.556 8.24658 106.03 8.33773 106.44 8.52002C106.855 8.70231 107.179 8.97803 107.411 9.34717C107.648 9.71175 107.767 10.1698 107.767 10.7212V14.1665C107.767 14.4126 107.787 14.6746 107.828 14.9526C107.874 15.2306 107.94 15.4699 108.026 15.6704V15.7798H106.707C106.643 15.634 106.593 15.4403 106.557 15.1987C106.52 14.9526 106.502 14.7248 106.502 14.5151ZM106.721 11.2954L106.734 12.1841H105.456C105.096 12.1841 104.775 12.2137 104.492 12.2729C104.21 12.3276 103.973 12.4119 103.781 12.5259C103.59 12.6398 103.444 12.7834 103.344 12.9565C103.243 13.1252 103.193 13.3234 103.193 13.5513C103.193 13.7837 103.246 13.9956 103.351 14.187C103.455 14.3784 103.613 14.5311 103.822 14.645C104.036 14.7544 104.299 14.8091 104.608 14.8091C104.996 14.8091 105.338 14.7271 105.634 14.563C105.93 14.3989 106.165 14.1984 106.338 13.9614C106.516 13.7244 106.611 13.4943 106.625 13.271L107.165 13.8794C107.133 14.0708 107.047 14.2827 106.905 14.5151C106.764 14.7476 106.575 14.9709 106.338 15.1851C106.105 15.3947 105.827 15.5701 105.504 15.7114C105.185 15.8481 104.825 15.9165 104.424 15.9165C103.923 15.9165 103.483 15.8185 103.104 15.6226C102.731 15.4266 102.439 15.1646 102.229 14.8364C102.024 14.5037 101.922 14.1323 101.922 13.7222C101.922 13.3257 101.999 12.9771 102.154 12.6763C102.309 12.3709 102.533 12.118 102.824 11.9175C103.116 11.7124 103.467 11.5575 103.877 11.4526C104.287 11.3478 104.745 11.2954 105.251 11.2954H106.721ZM111.021 9.54541V15.7798H109.756V8.3833H110.986L111.021 9.54541ZM113.331 8.34229L113.324 9.51807C113.219 9.49528 113.119 9.48161 113.023 9.47705C112.932 9.46794 112.827 9.46338 112.709 9.46338C112.417 9.46338 112.16 9.50895 111.937 9.6001C111.713 9.69124 111.524 9.81885 111.369 9.98291C111.214 10.147 111.091 10.3429 111 10.5708C110.913 10.7941 110.856 11.0402 110.829 11.3091L110.474 11.5142C110.474 11.0675 110.517 10.6483 110.604 10.2563C110.695 9.86442 110.834 9.51807 111.021 9.21729C111.207 8.91195 111.444 8.67497 111.731 8.50635C112.023 8.33317 112.369 8.24658 112.771 8.24658C112.862 8.24658 112.966 8.25798 113.085 8.28076C113.203 8.29899 113.285 8.3195 113.331 8.34229ZM117.938 8.3833V9.354H113.939V8.3833H117.938ZM115.293 6.58545H116.558V13.9478C116.558 14.1984 116.596 14.3875 116.674 14.5151C116.751 14.6427 116.852 14.7271 116.975 14.7681C117.098 14.8091 117.23 14.8296 117.371 14.8296C117.476 14.8296 117.585 14.8205 117.699 14.8022C117.818 14.7795 117.907 14.7612 117.966 14.7476L117.973 15.7798C117.872 15.8117 117.74 15.8413 117.576 15.8687C117.417 15.9006 117.223 15.9165 116.995 15.9165C116.685 15.9165 116.4 15.855 116.141 15.7319C115.881 15.6089 115.674 15.4038 115.519 15.1167C115.368 14.825 115.293 14.4331 115.293 13.9409V6.58545ZM120.796 8.3833V15.7798H119.524V8.3833H120.796ZM119.429 6.42139C119.429 6.21631 119.49 6.04313 119.613 5.90186C119.741 5.76058 119.928 5.68994 120.174 5.68994C120.415 5.68994 120.6 5.76058 120.728 5.90186C120.86 6.04313 120.926 6.21631 120.926 6.42139C120.926 6.61735 120.86 6.78597 120.728 6.92725C120.6 7.06396 120.415 7.13232 120.174 7.13232C119.928 7.13232 119.741 7.06396 119.613 6.92725C119.49 6.78597 119.429 6.61735 119.429 6.42139ZM125.786 14.8774C126.087 14.8774 126.365 14.8159 126.62 14.6929C126.875 14.5698 127.085 14.4012 127.249 14.187C127.413 13.9683 127.507 13.7199 127.529 13.4419H128.732C128.71 13.8794 128.562 14.2873 128.288 14.6655C128.019 15.0392 127.666 15.3423 127.229 15.5747C126.791 15.8026 126.31 15.9165 125.786 15.9165C125.23 15.9165 124.745 15.8185 124.33 15.6226C123.92 15.4266 123.578 15.1577 123.305 14.8159C123.036 14.4741 122.833 14.0822 122.696 13.6401C122.564 13.1935 122.498 12.7218 122.498 12.2251V11.938C122.498 11.4412 122.564 10.9718 122.696 10.5298C122.833 10.0832 123.036 9.68896 123.305 9.34717C123.578 9.00537 123.92 8.73649 124.33 8.54053C124.745 8.34456 125.23 8.24658 125.786 8.24658C126.365 8.24658 126.871 8.36507 127.304 8.60205C127.737 8.83447 128.076 9.15348 128.322 9.55908C128.573 9.96012 128.71 10.4159 128.732 10.9263H127.529C127.507 10.6209 127.42 10.3452 127.27 10.0991C127.124 9.85303 126.923 9.65706 126.668 9.51123C126.417 9.36084 126.123 9.28564 125.786 9.28564C125.399 9.28564 125.073 9.36312 124.809 9.51807C124.549 9.66846 124.341 9.87354 124.187 10.1333C124.036 10.3885 123.927 10.6733 123.858 10.9878C123.795 11.2977 123.763 11.6144 123.763 11.938V12.2251C123.763 12.5487 123.795 12.8677 123.858 13.1821C123.922 13.4966 124.029 13.7814 124.18 14.0366C124.335 14.2918 124.542 14.4969 124.802 14.6519C125.066 14.8022 125.394 14.8774 125.786 14.8774ZM131.528 5.27979V15.7798H130.257V5.27979H131.528ZM136.628 15.9165C136.113 15.9165 135.646 15.8299 135.227 15.6567C134.812 15.479 134.454 15.2306 134.153 14.9116C133.857 14.5926 133.629 14.2144 133.47 13.7769C133.31 13.3394 133.23 12.8608 133.23 12.3413V12.0542C133.23 11.4526 133.319 10.9172 133.497 10.4478C133.675 9.9738 133.916 9.57275 134.222 9.24463C134.527 8.9165 134.873 8.66813 135.261 8.49951C135.648 8.33089 136.049 8.24658 136.464 8.24658C136.993 8.24658 137.448 8.33773 137.831 8.52002C138.218 8.70231 138.535 8.95752 138.781 9.28564C139.027 9.60921 139.21 9.99202 139.328 10.4341C139.447 10.8716 139.506 11.3501 139.506 11.8696V12.437H133.982V11.4048H138.241V11.3091C138.223 10.981 138.155 10.6619 138.036 10.3521C137.922 10.0422 137.74 9.78695 137.489 9.58643C137.239 9.3859 136.897 9.28564 136.464 9.28564C136.177 9.28564 135.912 9.34717 135.671 9.47021C135.429 9.5887 135.222 9.76644 135.049 10.0034C134.876 10.2404 134.741 10.5298 134.646 10.8716C134.55 11.2134 134.502 11.6076 134.502 12.0542V12.3413C134.502 12.6922 134.55 13.0226 134.646 13.3325C134.746 13.6379 134.889 13.9067 135.076 14.1392C135.268 14.3716 135.498 14.5539 135.767 14.686C136.04 14.8182 136.35 14.8843 136.696 14.8843C137.143 14.8843 137.521 14.7931 137.831 14.6108C138.141 14.4285 138.412 14.1847 138.645 13.8794L139.41 14.4878C139.251 14.7293 139.048 14.9595 138.802 15.1782C138.556 15.397 138.253 15.5747 137.893 15.7114C137.537 15.8481 137.116 15.9165 136.628 15.9165Z" fill="#666666"/>
<rect x="0.0712891" y="2.77979" width="18" height="2" fill="#E16745"/>
<rect x="0.0712891" y="6.77979" width="10" height="10" fill="#E16745"/>
<rect x="12.0713" y="6.77979" width="6" height="2" fill="#E16745"/>
<rect x="12.0713" y="10.7798" width="6" height="2" fill="#E16745"/>
<rect x="12.0713" y="14.7798" width="6" height="2" fill="#E16745"/>
<rect x="0.0712891" y="18.7798" width="18" height="2" fill="#E16745"/>
</svg>
