<svg width="19" height="19" viewBox="0 0 19 19" fill="none" xmlns="http://www.w3.org/2000/svg">
<path fill-rule="evenodd" clip-rule="evenodd" d="M16.0713 6.77979H2.07129V14.7798C2.07129 15.8844 2.9668 16.7798 4.07129 16.7798H14.0713C15.1758 16.7798 16.0713 15.8844 16.0713 14.7798V6.77979ZM0.0712891 0.779785V16.7798C0.0712891 17.8844 0.966797 18.7798 2.07129 18.7798H16.0713C17.1758 18.7798 18.0713 17.8844 18.0713 16.7798V0.779785H0.0712891ZM4.07129 2.77979H6.07129V4.77979H4.07129V2.77979ZM14.0713 2.77979H12.0713V4.77979H14.0713V2.77979Z" fill="#C37D16"/>
<path d="M7.94902 11.8814L7.30273 11.7269L7.62151 8.77979H10.8835V9.47491H8.3071L8.11496 11.0847C8.23141 11.0223 8.37842 10.9641 8.55601 10.9099C8.7365 10.8557 8.9432 10.8286 9.17609 10.8286C9.47012 10.8286 9.73359 10.876 9.96649 10.9708C10.1994 11.063 10.3973 11.1958 10.5604 11.3692C10.7263 11.5427 10.8529 11.7513 10.9403 11.9952C11.0276 12.2391 11.0713 12.5115 11.0713 12.8123C11.0713 13.0969 11.0291 13.3584 10.9447 13.5969C10.8631 13.8353 10.7394 14.044 10.5735 14.2229C10.4075 14.399 10.1979 14.5359 9.94465 14.6334C9.69429 14.731 9.3988 14.7798 9.05819 14.7798C8.802 14.7798 8.55892 14.7473 8.32893 14.6822C8.10186 14.6145 7.89807 14.5128 7.71758 14.3773C7.53999 14.2391 7.39443 14.0684 7.2809 13.8652C7.17027 13.6592 7.1004 13.418 7.07129 13.1416H7.83985C7.87478 13.3638 7.94465 13.5508 8.04945 13.7025C8.15426 13.8543 8.29109 13.9695 8.45994 14.0481C8.6317 14.124 8.83111 14.1619 9.05819 14.1619C9.25033 14.1619 9.42063 14.1307 9.56911 14.0684C9.71758 14.0061 9.84276 13.9166 9.94465 13.8001C10.0465 13.6836 10.1237 13.5427 10.1761 13.3773C10.2314 13.212 10.2591 13.0264 10.2591 12.8204C10.2591 12.6334 10.2314 12.46 10.1761 12.3001C10.1208 12.1402 10.0378 12.0007 9.92718 11.8814C9.81947 11.7622 9.68701 11.67 9.5298 11.605C9.3726 11.5372 9.1921 11.5034 8.98832 11.5034C8.71758 11.5034 8.51234 11.5372 8.3726 11.605C8.23577 11.6727 8.09458 11.7649 7.94902 11.8814Z" fill="#C37D16"/>
</svg>
