<svg width="21" height="20" viewBox="0 0 21 20" fill="none" xmlns="http://www.w3.org/2000/svg">
<circle cx="10.6247" cy="10.2604" r="9.6745" fill="#4E8ADD"/>
<path d="M15.2831 9.34876H17.1074C17.6001 11.4054 16.8279 14.2692 16.3802 15.4441C16.3802 15.4441 14.7762 15.3068 13.7636 15.4441C12.7426 15.5825 12.2367 15.9743 11.2213 16.1493C9.49301 16.4471 6.7305 16.1493 6.7305 16.1493C5.75069 15.9414 5.82739 14.9863 5.98822 14.5348C4.72634 14.2379 4.92327 13.1525 5.17947 12.647C4.11293 12.0295 4.45425 10.9162 4.75822 10.4367C4.50092 10.4133 3.98633 10.163 3.98633 9.34876C3.98633 8.53455 4.50092 8.2379 4.75822 8.19135H10.3365C9.79851 7.46629 8.71552 5.72848 8.68745 4.57774C8.65938 3.427 9.4007 2.97557 9.77487 2.89369C9.97372 2.84686 10.4626 2.98474 10.8275 3.91095C11.1924 4.83715 13.9499 7.92207 15.2831 9.34876Z" fill="#CCDEF5"/>
<path fill-rule="evenodd" clip-rule="evenodd" d="M9.74088 2.74879C10.0486 2.67631 10.5906 2.90399 10.9657 3.85615C11.0486 4.0665 11.2772 4.418 11.6091 4.86137C11.9372 5.29976 12.3557 5.81427 12.8056 6.34588C13.6857 7.38572 14.6818 8.48589 15.3477 9.1999H17.1075C17.1761 9.1999 17.2359 9.247 17.2519 9.3138C17.505 10.3704 17.4317 11.6234 17.2429 12.7512C17.0538 13.8813 16.7462 14.9005 16.519 15.4966C16.4954 15.5585 16.4336 15.5973 16.3676 15.5917L16.3633 15.5913L16.35 15.5902L16.2981 15.5862C16.2527 15.5827 16.1867 15.5779 16.1042 15.5726C15.9392 15.562 15.7087 15.5492 15.4468 15.5407C14.9208 15.5236 14.277 15.524 13.7836 15.5909C13.2895 15.6578 12.9202 15.7858 12.5407 15.9223C12.5226 15.9288 12.5045 15.9353 12.4864 15.9419C12.1233 16.0728 11.744 16.2095 11.2466 16.2952C10.3661 16.4469 9.23026 16.4462 8.32176 16.4089C7.866 16.3902 7.46464 16.3622 7.17716 16.3388C7.03339 16.3271 6.91802 16.3165 6.83847 16.3089L6.74692 16.2999L6.72303 16.2974L6.71525 16.2966L6.69958 16.2949C6.43084 16.2379 6.22544 16.1266 6.07454 15.9784C5.92399 15.8305 5.83504 15.6522 5.78793 15.4703C5.71266 15.1797 5.74204 14.8731 5.80203 14.6376C5.54128 14.5567 5.33989 14.4382 5.18976 14.2915C5.01108 14.117 4.91264 13.9099 4.86918 13.6987C4.7957 13.3416 4.8785 12.972 4.99013 12.7034C4.49629 12.3721 4.31688 11.9246 4.30651 11.4933C4.29784 11.133 4.40652 10.789 4.53351 10.5339C4.41305 10.4884 4.28344 10.4111 4.16879 10.2918C3.97828 10.0936 3.83789 9.78913 3.83789 9.34839C3.83789 8.45516 4.41121 8.10286 4.73184 8.04486C4.74056 8.04328 4.74941 8.04249 4.75828 8.04249H10.0475C9.79015 7.67181 9.46838 7.15942 9.18856 6.61133C8.84543 5.93922 8.55395 5.19178 8.53906 4.581C8.509 3.34847 9.3105 2.84294 9.74318 2.74827L9.77493 2.89333L9.74088 2.74879ZM4.84247 10.5848C4.71537 10.8101 4.59519 11.1445 4.60341 11.4861C4.61195 11.8413 4.75825 12.2111 5.20561 12.4891H5.48768C5.48768 12.4891 5.70905 12.449 5.72628 12.5291C5.7435 12.6093 5.48768 12.7034 5.48768 12.7034L5.28205 12.7764C5.177 13.0103 5.09843 13.3393 5.16007 13.6388C5.19308 13.7993 5.266 13.9508 5.39729 14.0791C5.52199 14.2009 5.70613 14.3083 5.9753 14.3782C5.9753 14.3782 6.4428 14.2485 6.47536 14.3237C6.50792 14.399 6.10839 14.6443 6.10839 14.6443C6.04559 14.8507 6.00872 15.1383 6.07543 15.3958C6.11151 15.5351 6.17705 15.6628 6.28266 15.7665C6.38676 15.8688 6.53684 15.9548 6.75404 16.0021L6.77708 16.0044L6.8668 16.0133C6.94508 16.0208 7.05903 16.0312 7.20124 16.0428C7.48574 16.0659 7.88303 16.0937 8.33394 16.1122C9.23877 16.1493 10.3483 16.1486 11.1961 16.0025C11.6674 15.9213 12.025 15.7925 12.3895 15.6611C12.4064 15.655 12.4232 15.6489 12.4401 15.6429C12.8227 15.5052 13.2168 15.368 13.7437 15.2966C14.263 15.2262 14.9274 15.2266 15.4565 15.2438C15.7222 15.2525 15.956 15.2654 16.1233 15.2762C16.1853 15.2802 16.2381 15.2839 16.2802 15.287C16.4963 14.6969 16.775 13.7482 16.95 12.7022C17.1291 11.6321 17.1974 10.4738 16.9888 9.49689H15.2832C15.2421 9.49689 15.2028 9.47983 15.1747 9.44978C14.5069 8.7352 13.4825 7.60542 12.5789 6.53774C12.1272 6.004 11.7045 5.48445 11.3713 5.03934C11.0419 4.5992 10.789 4.21776 10.6894 3.96501C10.3347 3.06476 9.89895 3.01667 9.80897 3.03786L9.80667 3.03841C9.49102 3.10748 8.80988 3.5048 8.83596 4.57375C8.84912 5.11371 9.11319 5.81055 9.45307 6.47629C9.79034 7.13693 10.191 7.74567 10.4558 8.1025C10.4892 8.14756 10.4944 8.20761 10.4692 8.25773C10.444 8.30785 10.3927 8.33947 10.3366 8.33947H4.77269C4.57258 8.3821 4.13488 8.628 4.13488 9.34839C4.13488 9.72187 4.25178 9.94962 4.38289 10.086C4.51458 10.223 4.66973 10.2775 4.7656 10.2878C4.7656 10.2878 5.0869 10.3242 5.16891 10.3242C5.25093 10.3242 5.48768 10.4363 5.48768 10.4363L4.84247 10.5848Z" fill="#0A66C2"/>
</svg>
