<svg xmlns="http://www.w3.org/2000/svg" width="37" height="36" viewBox="0 0 37 36" fill="none">
  <path fill-rule="evenodd" clip-rule="evenodd" d="M2.72819 2.17839C0.776367 4.13021 0.776367 7.27162 0.776367 13.5544V22.4397C0.776367 28.7225 0.776367 31.8639 2.72819 33.8158C4.68001 35.7676 7.82142 35.7676 14.1042 35.7676H22.9895C29.2723 35.7676 32.4137 35.7676 34.3656 33.8158C36.3174 31.8639 36.3174 28.7225 36.3174 22.4397V13.5544C36.3174 7.27162 36.3174 4.13021 34.3656 2.17839C32.4137 0.226562 29.2723 0.226562 22.9895 0.226562H14.1042C7.82142 0.226562 4.68001 0.226562 2.72819 2.17839ZM9.64705 11.3601C8.1837 11.3601 6.99604 10.1603 6.99604 8.68105C6.99604 7.20179 8.1837 6.00198 9.64705 6.00198C11.1104 6.00198 12.2981 7.20179 12.2981 8.68105C12.2981 10.1603 11.1119 11.3601 9.64705 11.3601ZM7.37476 29.9922V13.2859H11.9193V29.9922H7.37476ZM25.5531 29.9922H30.0977V19.7269C30.0977 11.7489 21.6099 12.039 19.4937 15.9665V13.2859H14.9491V29.9922H19.4937V21.4811C19.4937 16.7532 25.5531 16.3659 25.5531 21.4811V29.9922Z" fill="blue"/>
</svg>
